<svg width="19" height="60" viewBox="0 0 19 60" fill="none" xmlns="http://www.w3.org/2000/svg">
<path d="M9.60999 28.89L16.45 35.72L18.46 33.71L9.60999 24.86L0.77002 33.71L2.78003 35.72L9.60999 28.89Z" fill="#FF9D00"/>
<path d="M9.60999 40.82L16.45 47.65L18.46 45.64L9.60999 36.79L0.77002 45.64L2.78003 47.65L9.60999 40.82Z" fill="#FF9D00"/>
<path d="M9.60999 52.89L16.45 59.73L18.46 57.71L9.60999 48.87L0.77002 57.71L2.78003 59.73L9.60999 52.89Z" fill="#FF9D00"/>
<path d="M9.60999 4.89001L16.45 11.72L18.46 9.70999L9.60999 0.859985L0.77002 9.70999L2.78003 11.72L9.60999 4.89001Z" fill="#FF9D00"/>
<path d="M9.60999 16.82L16.45 23.65L18.46 21.64L9.60999 12.79L0.77002 21.64L2.78003 23.65L9.60999 16.82Z" fill="#FF9D00"/>
</svg>
