<svg width="102" height="153" viewBox="0 0 102 153" fill="none" xmlns="http://www.w3.org/2000/svg">
<path d="M9.88 2.17998C9.88 3.10998 9.12 3.86998 8.19 3.86998C7.26 3.86998 6.5 3.10998 6.5 2.17998C6.5 1.24998 7.26 0.48999 8.19 0.48999C9.12 0.48999 9.88 1.24998 9.88 2.17998Z" fill="rgb(5 206 145)"/>
<path d="M23.3902 3.86998C24.3236 3.86998 25.0802 3.11334 25.0802 2.17998C25.0802 1.24662 24.3236 0.48999 23.3902 0.48999C22.4568 0.48999 21.7002 1.24662 21.7002 2.17998C21.7002 3.11334 22.4568 3.86998 23.3902 3.86998Z" fill="rgb(5 206 145)"/>
<path d="M38.5899 3.86998C39.5233 3.86998 40.2799 3.11334 40.2799 2.17998C40.2799 1.24662 39.5233 0.48999 38.5899 0.48999C37.6565 0.48999 36.8999 1.24662 36.8999 2.17998C36.8999 3.11334 37.6565 3.86998 38.5899 3.86998Z" fill="rgb(5 206 145)"/>
<path d="M53.7901 3.86998C54.7235 3.86998 55.4801 3.11334 55.4801 2.17998C55.4801 1.24662 54.7235 0.48999 53.7901 0.48999C52.8567 0.48999 52.1001 1.24662 52.1001 2.17998C52.1001 3.11334 52.8567 3.86998 53.7901 3.86998Z" fill="rgb(5 206 145)"/>
<path d="M68.9898 3.86998C69.9232 3.86998 70.6798 3.11334 70.6798 2.17998C70.6798 1.24662 69.9232 0.48999 68.9898 0.48999C68.0564 0.48999 67.2998 1.24662 67.2998 2.17998C67.2998 3.11334 68.0564 3.86998 68.9898 3.86998Z" fill="rgb(5 206 145)"/>
<path d="M84.19 3.86998C85.1234 3.86998 85.88 3.11334 85.88 2.17998C85.88 1.24662 85.1234 0.48999 84.19 0.48999C83.2566 0.48999 82.5 1.24662 82.5 2.17998C82.5 3.11334 83.2566 3.86998 84.19 3.86998Z" fill="rgb(5 206 145)"/>
<path d="M99.3902 3.86998C100.324 3.86998 101.08 3.11334 101.08 2.17998C101.08 1.24662 100.324 0.48999 99.3902 0.48999C98.4568 0.48999 97.7002 1.24662 97.7002 2.17998C97.7002 3.11334 98.4568 3.86998 99.3902 3.86998Z" fill="rgb(5 206 145)"/>
<path d="M9.88 15.69C9.88 16.62 9.12 17.38 8.19 17.38C7.26 17.38 6.5 16.62 6.5 15.69C6.5 14.76 7.26 14 8.19 14C9.12 14 9.88 14.76 9.88 15.69Z" fill="rgb(5 206 145)"/>
<path d="M23.3902 17.38C24.3236 17.38 25.0802 16.6234 25.0802 15.69C25.0802 14.7566 24.3236 14 23.3902 14C22.4568 14 21.7002 14.7566 21.7002 15.69C21.7002 16.6234 22.4568 17.38 23.3902 17.38Z" fill="rgb(5 206 145)"/>
<path d="M38.5899 17.38C39.5233 17.38 40.2799 16.6234 40.2799 15.69C40.2799 14.7566 39.5233 14 38.5899 14C37.6565 14 36.8999 14.7566 36.8999 15.69C36.8999 16.6234 37.6565 17.38 38.5899 17.38Z" fill="rgb(5 206 145)"/>
<path d="M53.7901 17.38C54.7235 17.38 55.4801 16.6234 55.4801 15.69C55.4801 14.7566 54.7235 14 53.7901 14C52.8567 14 52.1001 14.7566 52.1001 15.69C52.1001 16.6234 52.8567 17.38 53.7901 17.38Z" fill="rgb(5 206 145)"/>
<path d="M68.9898 17.38C69.9232 17.38 70.6798 16.6234 70.6798 15.69C70.6798 14.7566 69.9232 14 68.9898 14C68.0564 14 67.2998 14.7566 67.2998 15.69C67.2998 16.6234 68.0564 17.38 68.9898 17.38Z" fill="rgb(5 206 145)"/>
<path d="M84.19 17.38C85.1234 17.38 85.88 16.6234 85.88 15.69C85.88 14.7566 85.1234 14 84.19 14C83.2566 14 82.5 14.7566 82.5 15.69C82.5 16.6234 83.2566 17.38 84.19 17.38Z" fill="rgb(5 206 145)"/>
<path d="M99.3902 17.38C100.324 17.38 101.08 16.6234 101.08 15.69C101.08 14.7566 100.324 14 99.3902 14C98.4568 14 97.7002 14.7566 97.7002 15.69C97.7002 16.6234 98.4568 17.38 99.3902 17.38Z" fill="rgb(5 206 145)"/>
<path d="M9.88 29.2C9.88 30.13 9.12 30.89 8.19 30.89C7.26 30.89 6.5 30.13 6.5 29.2C6.5 28.27 7.26 27.51 8.19 27.51C9.12 27.51 9.88 28.27 9.88 29.2Z" fill="rgb(5 206 145)"/>
<path d="M23.3902 30.89C24.3236 30.89 25.0802 30.1334 25.0802 29.2C25.0802 28.2667 24.3236 27.51 23.3902 27.51C22.4568 27.51 21.7002 28.2667 21.7002 29.2C21.7002 30.1334 22.4568 30.89 23.3902 30.89Z" fill="rgb(5 206 145)"/>
<path d="M38.5899 30.89C39.5233 30.89 40.2799 30.1334 40.2799 29.2C40.2799 28.2667 39.5233 27.51 38.5899 27.51C37.6565 27.51 36.8999 28.2667 36.8999 29.2C36.8999 30.1334 37.6565 30.89 38.5899 30.89Z" fill="rgb(5 206 145)"/>
<path d="M53.7901 30.89C54.7235 30.89 55.4801 30.1334 55.4801 29.2C55.4801 28.2667 54.7235 27.51 53.7901 27.51C52.8567 27.51 52.1001 28.2667 52.1001 29.2C52.1001 30.1334 52.8567 30.89 53.7901 30.89Z" fill="rgb(5 206 145)"/>
<path d="M68.9898 30.89C69.9232 30.89 70.6798 30.1334 70.6798 29.2C70.6798 28.2667 69.9232 27.51 68.9898 27.51C68.0564 27.51 67.2998 28.2667 67.2998 29.2C67.2998 30.1334 68.0564 30.89 68.9898 30.89Z" fill="rgb(5 206 145)"/>
<path d="M84.19 30.89C85.1234 30.89 85.88 30.1334 85.88 29.2C85.88 28.2667 85.1234 27.51 84.19 27.51C83.2566 27.51 82.5 28.2667 82.5 29.2C82.5 30.1334 83.2566 30.89 84.19 30.89Z" fill="rgb(5 206 145)"/>
<path d="M99.3902 30.89C100.324 30.89 101.08 30.1334 101.08 29.2C101.08 28.2667 100.324 27.51 99.3902 27.51C98.4568 27.51 97.7002 28.2667 97.7002 29.2C97.7002 30.1334 98.4568 30.89 99.3902 30.89Z" fill="rgb(5 206 145)"/>
<path d="M9.88 42.71C9.88 43.64 9.12 44.4 8.19 44.4C7.26 44.4 6.5 43.64 6.5 42.71C6.5 41.78 7.26 41.02 8.19 41.02C9.12 41.02 9.88 41.78 9.88 42.71Z" fill="rgb(5 206 145)"/>
<path d="M25.0802 42.71C25.0802 43.64 24.3202 44.4 23.3902 44.4C22.4602 44.4 21.7002 43.64 21.7002 42.71C21.7002 41.78 22.4602 41.02 23.3902 41.02C24.3202 41.02 25.0802 41.78 25.0802 42.71Z" fill="rgb(5 206 145)"/>
<path d="M40.2799 42.71C40.2799 43.64 39.5199 44.4 38.5899 44.4C37.6599 44.4 36.8999 43.64 36.8999 42.71C36.8999 41.78 37.6599 41.02 38.5899 41.02C39.5199 41.02 40.2799 41.78 40.2799 42.71Z" fill="rgb(5 206 145)"/>
<path d="M55.4801 42.71C55.4801 43.64 54.7201 44.4 53.7901 44.4C52.8601 44.4 52.1001 43.64 52.1001 42.71C52.1001 41.78 52.8601 41.02 53.7901 41.02C54.7201 41.02 55.4801 41.78 55.4801 42.71Z" fill="rgb(5 206 145)"/>
<path d="M70.6798 42.71C70.6798 43.64 69.9198 44.4 68.9898 44.4C68.0598 44.4 67.2998 43.64 67.2998 42.71C67.2998 41.78 68.0598 41.02 68.9898 41.02C69.9198 41.02 70.6798 41.78 70.6798 42.71Z" fill="rgb(5 206 145)"/>
<path d="M85.88 42.71C85.88 43.64 85.12 44.4 84.19 44.4C83.26 44.4 82.5 43.64 82.5 42.71C82.5 41.78 83.26 41.02 84.19 41.02C85.12 41.02 85.88 41.78 85.88 42.71Z" fill="rgb(5 206 145)"/>
<path d="M101.08 42.71C101.08 43.64 100.32 44.4 99.3902 44.4C98.4602 44.4 97.7002 43.64 97.7002 42.71C97.7002 41.78 98.4602 41.02 99.3902 41.02C100.32 41.02 101.08 41.78 101.08 42.71Z" fill="rgb(5 206 145)"/>
<path d="M9.88 56.22C9.88 57.15 9.12 57.91 8.19 57.91C7.26 57.91 6.5 57.15 6.5 56.22C6.5 55.29 7.26 54.53 8.19 54.53C9.12 54.53 9.88 55.29 9.88 56.22Z" fill="rgb(5 206 145)"/>
<path d="M25.0802 56.22C25.0802 57.15 24.3202 57.91 23.3902 57.91C22.4602 57.91 21.7002 57.15 21.7002 56.22C21.7002 55.29 22.4602 54.53 23.3902 54.53C24.3202 54.53 25.0802 55.29 25.0802 56.22Z" fill="rgb(5 206 145)"/>
<path d="M40.2799 56.22C40.2799 57.15 39.5199 57.91 38.5899 57.91C37.6599 57.91 36.8999 57.15 36.8999 56.22C36.8999 55.29 37.6599 54.53 38.5899 54.53C39.5199 54.53 40.2799 55.29 40.2799 56.22Z" fill="rgb(5 206 145)"/>
<path d="M55.4801 56.22C55.4801 57.15 54.7201 57.91 53.7901 57.91C52.8601 57.91 52.1001 57.15 52.1001 56.22C52.1001 55.29 52.8601 54.53 53.7901 54.53C54.7201 54.53 55.4801 55.29 55.4801 56.22Z" fill="rgb(5 206 145)"/>
<path d="M70.6798 56.22C70.6798 57.15 69.9198 57.91 68.9898 57.91C68.0598 57.91 67.2998 57.15 67.2998 56.22C67.2998 55.29 68.0598 54.53 68.9898 54.53C69.9198 54.53 70.6798 55.29 70.6798 56.22Z" fill="rgb(5 206 145)"/>
<path d="M85.88 56.22C85.88 57.15 85.12 57.91 84.19 57.91C83.26 57.91 82.5 57.15 82.5 56.22C82.5 55.29 83.26 54.53 84.19 54.53C85.12 54.53 85.88 55.29 85.88 56.22Z" fill="rgb(5 206 145)"/>
<path d="M101.08 56.22C101.08 57.15 100.32 57.91 99.3902 57.91C98.4602 57.91 97.7002 57.15 97.7002 56.22C97.7002 55.29 98.4602 54.53 99.3902 54.53C100.32 54.53 101.08 55.29 101.08 56.22Z" fill="rgb(5 206 145)"/>
<path d="M9.88 69.73C9.88 70.66 9.12 71.42 8.19 71.42C7.26 71.42 6.5 70.66 6.5 69.73C6.5 68.8 7.26 68.04 8.19 68.04C9.12 68.04 9.88 68.8 9.88 69.73Z" fill="rgb(5 206 145)"/>
<path d="M25.0802 69.73C25.0802 70.66 24.3202 71.42 23.3902 71.42C22.4602 71.42 21.7002 70.66 21.7002 69.73C21.7002 68.8 22.4602 68.04 23.3902 68.04C24.3202 68.04 25.0802 68.8 25.0802 69.73Z" fill="rgb(5 206 145)"/>
<path d="M40.2799 69.73C40.2799 70.66 39.5199 71.42 38.5899 71.42C37.6599 71.42 36.8999 70.66 36.8999 69.73C36.8999 68.8 37.6599 68.04 38.5899 68.04C39.5199 68.04 40.2799 68.8 40.2799 69.73Z" fill="rgb(5 206 145)"/>
<path d="M55.4801 69.73C55.4801 70.66 54.7201 71.42 53.7901 71.42C52.8601 71.42 52.1001 70.66 52.1001 69.73C52.1001 68.8 52.8601 68.04 53.7901 68.04C54.7201 68.04 55.4801 68.8 55.4801 69.73Z" fill="rgb(5 206 145)"/>
<path d="M70.6798 69.73C70.6798 70.66 69.9198 71.42 68.9898 71.42C68.0598 71.42 67.2998 70.66 67.2998 69.73C67.2998 68.8 68.0598 68.04 68.9898 68.04C69.9198 68.04 70.6798 68.8 70.6798 69.73Z" fill="rgb(5 206 145)"/>
<path d="M85.88 69.73C85.88 70.66 85.12 71.42 84.19 71.42C83.26 71.42 82.5 70.66 82.5 69.73C82.5 68.8 83.26 68.04 84.19 68.04C85.12 68.04 85.88 68.8 85.88 69.73Z" fill="rgb(5 206 145)"/>
<path d="M101.08 69.73C101.08 70.66 100.32 71.42 99.3902 71.42C98.4602 71.42 97.7002 70.66 97.7002 69.73C97.7002 68.8 98.4602 68.04 99.3902 68.04C100.32 68.04 101.08 68.8 101.08 69.73Z" fill="rgb(5 206 145)"/>
<path d="M9.88 83.2399C9.88 84.1699 9.12 84.9299 8.19 84.9299C7.26 84.9299 6.5 84.1699 6.5 83.2399C6.5 82.3099 7.26 81.5499 8.19 81.5499C9.12 81.5599 9.88 82.3099 9.88 83.2399Z" fill="rgb(5 206 145)"/>
<path d="M23.3902 84.9299C24.3236 84.9299 25.0802 84.1733 25.0802 83.2399C25.0802 82.3066 24.3236 81.5499 23.3902 81.5499C22.4568 81.5499 21.7002 82.3066 21.7002 83.2399C21.7002 84.1733 22.4568 84.9299 23.3902 84.9299Z" fill="rgb(5 206 145)"/>
<path d="M38.5899 84.9299C39.5233 84.9299 40.2799 84.1733 40.2799 83.2399C40.2799 82.3066 39.5233 81.5499 38.5899 81.5499C37.6565 81.5499 36.8999 82.3066 36.8999 83.2399C36.8999 84.1733 37.6565 84.9299 38.5899 84.9299Z" fill="rgb(5 206 145)"/>
<path d="M53.7901 84.9299C54.7235 84.9299 55.4801 84.1733 55.4801 83.2399C55.4801 82.3066 54.7235 81.5499 53.7901 81.5499C52.8567 81.5499 52.1001 82.3066 52.1001 83.2399C52.1001 84.1733 52.8567 84.9299 53.7901 84.9299Z" fill="rgb(5 206 145)"/>
<path d="M68.9898 84.9299C69.9232 84.9299 70.6798 84.1733 70.6798 83.2399C70.6798 82.3066 69.9232 81.5499 68.9898 81.5499C68.0564 81.5499 67.2998 82.3066 67.2998 83.2399C67.2998 84.1733 68.0564 84.9299 68.9898 84.9299Z" fill="rgb(5 206 145)"/>
<path d="M84.19 84.9299C85.1234 84.9299 85.88 84.1733 85.88 83.2399C85.88 82.3066 85.1234 81.5499 84.19 81.5499C83.2566 81.5499 82.5 82.3066 82.5 83.2399C82.5 84.1733 83.2566 84.9299 84.19 84.9299Z" fill="rgb(5 206 145)"/>
<path d="M99.3902 84.9299C100.324 84.9299 101.08 84.1733 101.08 83.2399C101.08 82.3066 100.324 81.5499 99.3902 81.5499C98.4568 81.5499 97.7002 82.3066 97.7002 83.2399C97.7002 84.1733 98.4568 84.9299 99.3902 84.9299Z" fill="rgb(5 206 145)"/>
<path d="M9.88 96.7599C9.88 97.6899 9.12 98.45 8.19 98.45C7.26 98.45 6.5 97.6899 6.5 96.7599C6.5 95.8299 7.26 95.0699 8.19 95.0699C9.12 95.0699 9.88 95.8199 9.88 96.7599Z" fill="rgb(5 206 145)"/>
<path d="M25.0802 96.7599C25.0802 97.6899 24.3202 98.45 23.3902 98.45C22.4602 98.45 21.7002 97.6899 21.7002 96.7599C21.7002 95.8299 22.4602 95.0699 23.3902 95.0699C24.3202 95.0699 25.0802 95.8199 25.0802 96.7599Z" fill="rgb(5 206 145)"/>
<path d="M40.2799 96.7599C40.2799 97.6899 39.5199 98.45 38.5899 98.45C37.6599 98.45 36.8999 97.6899 36.8999 96.7599C36.8999 95.8299 37.6599 95.0699 38.5899 95.0699C39.5199 95.0699 40.2799 95.8199 40.2799 96.7599Z" fill="rgb(5 206 145)"/>
<path d="M55.4801 96.7599C55.4801 97.6899 54.7201 98.45 53.7901 98.45C52.8601 98.45 52.1001 97.6899 52.1001 96.7599C52.1001 95.8299 52.8601 95.0699 53.7901 95.0699C54.7201 95.0699 55.4801 95.8199 55.4801 96.7599Z" fill="rgb(5 206 145)"/>
<path d="M70.6798 96.7599C70.6798 97.6899 69.9198 98.45 68.9898 98.45C68.0598 98.45 67.2998 97.6899 67.2998 96.7599C67.2998 95.8299 68.0598 95.0699 68.9898 95.0699C69.9198 95.0699 70.6798 95.8199 70.6798 96.7599Z" fill="rgb(5 206 145)"/>
<path d="M85.88 96.7599C85.88 97.6899 85.12 98.45 84.19 98.45C83.26 98.45 82.5 97.6899 82.5 96.7599C82.5 95.8299 83.26 95.0699 84.19 95.0699C85.12 95.0699 85.88 95.8199 85.88 96.7599Z" fill="rgb(5 206 145)"/>
<path d="M101.08 96.7599C101.08 97.6899 100.32 98.45 99.3902 98.45C98.4602 98.45 97.7002 97.6899 97.7002 96.7599C97.7002 95.8299 98.4602 95.0699 99.3902 95.0699C100.32 95.0699 101.08 95.8199 101.08 96.7599Z" fill="rgb(5 206 145)"/>
<path d="M9.88 110.27C9.88 111.2 9.12 111.96 8.19 111.96C7.26 111.96 6.5 111.2 6.5 110.27C6.5 109.34 7.26 108.58 8.19 108.58C9.12 108.58 9.88 109.33 9.88 110.27Z" fill="rgb(5 206 145)"/>
<path d="M25.0802 110.27C25.0802 111.2 24.3202 111.96 23.3902 111.96C22.4602 111.96 21.7002 111.2 21.7002 110.27C21.7002 109.34 22.4602 108.58 23.3902 108.58C24.3202 108.58 25.0802 109.33 25.0802 110.27Z" fill="rgb(5 206 145)"/>
<path d="M40.2799 110.27C40.2799 111.2 39.5199 111.96 38.5899 111.96C37.6599 111.96 36.8999 111.2 36.8999 110.27C36.8999 109.34 37.6599 108.58 38.5899 108.58C39.5199 108.58 40.2799 109.33 40.2799 110.27Z" fill="rgb(5 206 145)"/>
<path d="M55.4801 110.27C55.4801 111.2 54.7201 111.96 53.7901 111.96C52.8601 111.96 52.1001 111.2 52.1001 110.27C52.1001 109.34 52.8601 108.58 53.7901 108.58C54.7201 108.58 55.4801 109.33 55.4801 110.27Z" fill="rgb(5 206 145)"/>
<path d="M70.6798 110.27C70.6798 111.2 69.9198 111.96 68.9898 111.96C68.0598 111.96 67.2998 111.2 67.2998 110.27C67.2998 109.34 68.0598 108.58 68.9898 108.58C69.9198 108.58 70.6798 109.33 70.6798 110.27Z" fill="rgb(5 206 145)"/>
<path d="M85.88 110.27C85.88 111.2 85.12 111.96 84.19 111.96C83.26 111.96 82.5 111.2 82.5 110.27C82.5 109.34 83.26 108.58 84.19 108.58C85.12 108.58 85.88 109.33 85.88 110.27Z" fill="rgb(5 206 145)"/>
<path d="M101.08 110.27C101.08 111.2 100.32 111.96 99.3902 111.96C98.4602 111.96 97.7002 111.2 97.7002 110.27C97.7002 109.34 98.4602 108.58 99.3902 108.58C100.32 108.58 101.08 109.33 101.08 110.27Z" fill="rgb(5 206 145)"/>
<path d="M9.88 123.78C9.88 124.71 9.12 125.47 8.19 125.47C7.26 125.47 6.5 124.71 6.5 123.78C6.5 122.85 7.26 122.09 8.19 122.09C9.12 122.09 9.88 122.85 9.88 123.78Z" fill="rgb(5 206 145)"/>
<path d="M25.0802 123.78C25.0802 124.71 24.3202 125.47 23.3902 125.47C22.4602 125.47 21.7002 124.71 21.7002 123.78C21.7002 122.85 22.4602 122.09 23.3902 122.09C24.3202 122.09 25.0802 122.85 25.0802 123.78Z" fill="rgb(5 206 145)"/>
<path d="M40.2799 123.78C40.2799 124.71 39.5199 125.47 38.5899 125.47C37.6599 125.47 36.8999 124.71 36.8999 123.78C36.8999 122.85 37.6599 122.09 38.5899 122.09C39.5199 122.09 40.2799 122.85 40.2799 123.78Z" fill="rgb(5 206 145)"/>
<path d="M55.4801 123.78C55.4801 124.71 54.7201 125.47 53.7901 125.47C52.8601 125.47 52.1001 124.71 52.1001 123.78C52.1001 122.85 52.8601 122.09 53.7901 122.09C54.7201 122.09 55.4801 122.85 55.4801 123.78Z" fill="rgb(5 206 145)"/>
<path d="M70.6798 123.78C70.6798 124.71 69.9198 125.47 68.9898 125.47C68.0598 125.47 67.2998 124.71 67.2998 123.78C67.2998 122.85 68.0598 122.09 68.9898 122.09C69.9198 122.09 70.6798 122.85 70.6798 123.78Z" fill="rgb(5 206 145)"/>
<path d="M85.88 123.78C85.88 124.71 85.12 125.47 84.19 125.47C83.26 125.47 82.5 124.71 82.5 123.78C82.5 122.85 83.26 122.09 84.19 122.09C85.12 122.09 85.88 122.85 85.88 123.78Z" fill="rgb(5 206 145)"/>
<path d="M101.08 123.78C101.08 124.71 100.32 125.47 99.3902 125.47C98.4602 125.47 97.7002 124.71 97.7002 123.78C97.7002 122.85 98.4602 122.09 99.3902 122.09C100.32 122.09 101.08 122.85 101.08 123.78Z" fill="rgb(5 206 145)"/>
<path d="M9.88 137.29C9.88 138.22 9.12 138.98 8.19 138.98C7.26 138.98 6.5 138.22 6.5 137.29C6.5 136.36 7.26 135.6 8.19 135.6C9.12 135.6 9.88 136.36 9.88 137.29Z" fill="rgb(5 206 145)"/>
<path d="M23.3902 138.98C24.3236 138.98 25.0802 138.223 25.0802 137.29C25.0802 136.357 24.3236 135.6 23.3902 135.6C22.4568 135.6 21.7002 136.357 21.7002 137.29C21.7002 138.223 22.4568 138.98 23.3902 138.98Z" fill="rgb(5 206 145)"/>
<path d="M38.5899 138.98C39.5233 138.98 40.2799 138.223 40.2799 137.29C40.2799 136.357 39.5233 135.6 38.5899 135.6C37.6565 135.6 36.8999 136.357 36.8999 137.29C36.8999 138.223 37.6565 138.98 38.5899 138.98Z" fill="rgb(5 206 145)"/>
<path d="M53.7901 138.98C54.7235 138.98 55.4801 138.223 55.4801 137.29C55.4801 136.357 54.7235 135.6 53.7901 135.6C52.8567 135.6 52.1001 136.357 52.1001 137.29C52.1001 138.223 52.8567 138.98 53.7901 138.98Z" fill="rgb(5 206 145)"/>
<path d="M68.9898 138.98C69.9232 138.98 70.6798 138.223 70.6798 137.29C70.6798 136.357 69.9232 135.6 68.9898 135.6C68.0564 135.6 67.2998 136.357 67.2998 137.29C67.2998 138.223 68.0564 138.98 68.9898 138.98Z" fill="rgb(5 206 145)"/>
<path d="M84.19 138.98C85.1234 138.98 85.88 138.223 85.88 137.29C85.88 136.357 85.1234 135.6 84.19 135.6C83.2566 135.6 82.5 136.357 82.5 137.29C82.5 138.223 83.2566 138.98 84.19 138.98Z" fill="rgb(5 206 145)"/>
<path d="M99.3902 138.98C100.324 138.98 101.08 138.223 101.08 137.29C101.08 136.357 100.324 135.6 99.3902 135.6C98.4568 135.6 97.7002 136.357 97.7002 137.29C97.7002 138.223 98.4568 138.98 99.3902 138.98Z" fill="rgb(5 206 145)"/>
<path d="M9.88 150.8C9.88 151.73 9.12 152.49 8.19 152.49C7.26 152.49 6.5 151.73 6.5 150.8C6.5 149.87 7.26 149.11 8.19 149.11C9.12 149.11 9.88 149.87 9.88 150.8Z" fill="rgb(5 206 145)"/>
<path d="M25.0802 150.8C25.0802 151.73 24.3202 152.49 23.3902 152.49C22.4602 152.49 21.7002 151.73 21.7002 150.8C21.7002 149.87 22.4602 149.11 23.3902 149.11C24.3202 149.11 25.0802 149.87 25.0802 150.8Z" fill="rgb(5 206 145)"/>
<path d="M40.2799 150.8C40.2799 151.73 39.5199 152.49 38.5899 152.49C37.6599 152.49 36.8999 151.73 36.8999 150.8C36.8999 149.87 37.6599 149.11 38.5899 149.11C39.5199 149.11 40.2799 149.87 40.2799 150.8Z" fill="rgb(5 206 145)"/>
<path d="M55.4801 150.8C55.4801 151.73 54.7201 152.49 53.7901 152.49C52.8601 152.49 52.1001 151.73 52.1001 150.8C52.1001 149.87 52.8601 149.11 53.7901 149.11C54.7201 149.11 55.4801 149.87 55.4801 150.8Z" fill="rgb(5 206 145)"/>
<path d="M70.6798 150.8C70.6798 151.73 69.9198 152.49 68.9898 152.49C68.0598 152.49 67.2998 151.73 67.2998 150.8C67.2998 149.87 68.0598 149.11 68.9898 149.11C69.9198 149.11 70.6798 149.87 70.6798 150.8Z" fill="rgb(5 206 145)"/>
<path d="M85.88 150.8C85.88 151.73 85.12 152.49 84.19 152.49C83.26 152.49 82.5 151.73 82.5 150.8C82.5 149.87 83.26 149.11 84.19 149.11C85.12 149.11 85.88 149.87 85.88 150.8Z" fill="rgb(5 206 145)"/>
<path d="M101.08 150.8C101.08 151.73 100.32 152.49 99.3902 152.49C98.4602 152.49 97.7002 151.73 97.7002 150.8C97.7002 149.87 98.4602 149.11 99.3902 149.11C100.32 149.11 101.08 149.87 101.08 150.8Z" fill="rgb(5 206 145)"/>
</svg>
