<?xml version="1.0" standalone="no"?>
<!DOCTYPE svg PUBLIC "-//W3C//DTD SVG 20010904//EN"
 "http://www.w3.org/TR/2001/REC-SVG-20010904/DTD/svg10.dtd">
<svg version="1.0" xmlns="http://www.w3.org/2000/svg"
 width="1265.000000pt" height="1265.000000pt" viewBox="0 0 1265.000000 1265.000000"
 preserveAspectRatio="xMidYMid meet">
<metadata>
Created by potrace 1.14, written by Peter Selinger 2001-2017
</metadata>
<g transform="translate(0.000000,1265.000000) scale(0.100000,-0.100000)"
fill="#000000" stroke="none">
<path d="M6500 11891 c0 -9 -9 -12 -30 -9 -16 3 -30 2 -30 -1 0 -4 -17 -7 -37
-9 -35 -2 -78 -8 -78 -12 0 -3 -39 -11 -62 -13 -13 -1 -23 -5 -23 -9 0 -4 -9
-5 -20 -3 -11 2 -20 0 -20 -5 0 -4 -7 -11 -16 -14 -10 -4 -13 -2 -8 7 6 9 5 9
-8 0 -8 -7 -18 -10 -21 -6 -4 3 -7 1 -7 -6 0 -8 -7 -11 -15 -7 -8 3 -15 1 -15
-5 0 -6 -7 -9 -15 -6 -8 4 -17 2 -20 -4 -4 -5 -11 -7 -16 -4 -5 4 -9 1 -9 -5
0 -7 -7 -10 -15 -7 -8 4 -17 2 -21 -4 -3 -6 -13 -8 -21 -5 -9 4 -11 2 -7 -6 5
-7 -1 -9 -19 -6 -15 3 -24 1 -21 -3 5 -8 -17 -14 -38 -10 -5 0 -8 -4 -8 -10 0
-6 -7 -9 -15 -5 -8 3 -15 1 -15 -5 0 -6 -4 -7 -10 -4 -5 3 -10 1 -10 -4 0 -6
-7 -11 -15 -11 -8 0 -48 -18 -89 -39 -41 -22 -77 -37 -80 -34 -3 4 -6 1 -6 -6
0 -7 -4 -9 -10 -6 -5 3 -10 1 -10 -5 0 -6 -4 -8 -10 -5 -5 3 -10 1 -10 -6 0
-7 -3 -9 -7 -6 -3 4 -13 -2 -21 -14 -8 -11 -20 -18 -28 -15 -7 3 -16 0 -20 -6
-4 -7 -3 -8 4 -4 7 4 12 5 12 2 0 -9 -77 -46 -84 -41 -3 3 -4 2 -2 -1 6 -8
-27 -42 -36 -37 -5 2 -8 -1 -8 -7 0 -6 -6 -8 -12 -4 -7 4 -10 4 -6 -1 10 -10
-11 -37 -23 -29 -5 3 -9 0 -9 -6 0 -6 -5 -8 -10 -5 -6 4 -9 3 -8 -2 4 -11
-144 -159 -155 -155 -5 1 -6 -2 -3 -7 4 -5 0 -13 -8 -18 -8 -4 -16 -12 -18
-18 -2 -5 -6 -9 -10 -8 -5 2 -8 -4 -8 -12 0 -9 -6 -18 -14 -21 -8 -3 -12 -12
-9 -20 3 -7 -2 -16 -10 -20 -8 -3 -21 -19 -27 -35 -7 -16 -16 -29 -20 -29 -4
0 -11 -11 -14 -25 -4 -14 -11 -25 -17 -25 -6 0 -7 -4 -4 -10 3 -5 2 -10 -3
-10 -5 0 -9 -6 -10 -12 -2 -27 -29 -88 -36 -81 -4 4 -4 -1 0 -11 5 -12 4 -17
-3 -13 -5 3 -9 -3 -8 -16 1 -12 -2 -28 -8 -34 -5 -7 -6 -13 -2 -13 4 0 2 -7
-5 -15 -7 -8 -9 -15 -6 -15 4 0 1 -10 -6 -22 -7 -13 -11 -31 -9 -40 1 -10 -3
-18 -9 -18 -6 0 -8 -4 -5 -10 7 -11 -18 -14 -28 -3 -8 7 -51 15 -82 14 -10 0
-24 3 -30 7 -11 9 -210 7 -263 -2 -24 -4 -31 -2 -27 7 4 6 0 4 -8 -6 -9 -10
-21 -15 -31 -11 -9 3 -23 1 -31 -6 -8 -6 -18 -9 -23 -7 -4 3 -14 2 -22 -3 -9
-5 -20 -4 -28 2 -10 9 -12 8 -10 -2 2 -8 -9 -16 -27 -20 -16 -4 -40 -12 -52
-19 -13 -6 -23 -9 -23 -6 0 3 -9 -4 -20 -15 -12 -12 -26 -18 -33 -14 -7 4 -9
4 -5 -1 4 -4 0 -14 -10 -22 -9 -8 -11 -11 -4 -8 11 6 11 3 0 -14 -7 -12 -16
-21 -19 -21 -9 0 5 -60 21 -90 7 -14 21 -31 32 -38 10 -7 18 -19 18 -25 0 -14
-198 -114 -214 -109 -6 2 -8 0 -4 -3 10 -11 -71 -67 -84 -59 -6 4 -8 3 -4 -4
3 -6 -5 -19 -20 -29 -14 -10 -37 -30 -51 -45 -14 -15 -29 -26 -32 -25 -3 2
-18 -10 -33 -25 -15 -15 -25 -28 -22 -28 2 0 -8 -13 -22 -30 -15 -16 -31 -27
-36 -24 -5 3 -7 2 -6 -3 4 -13 -44 -73 -54 -67 -5 3 -7 2 -6 -3 3 -11 -34 -73
-44 -73 -4 0 -8 -4 -8 -9 0 -12 -63 -115 -73 -119 -4 -2 -5 -7 -2 -12 3 -4 -1
-25 -9 -46 -15 -44 -8 -69 28 -96 23 -16 26 -16 75 9 29 14 55 23 58 20 8 -9
-7 -118 -16 -113 -3 2 -4 -22 -1 -54 7 -69 34 -106 87 -116 18 -3 33 -12 33
-20 0 -14 -86 -155 -114 -186 -8 -9 -12 -18 -10 -21 2 -2 -9 -33 -25 -68 -16
-35 -32 -80 -36 -99 -4 -19 -12 -44 -18 -55 -12 -23 -13 -31 -21 -176 -6 -102
-5 -106 21 -146 29 -45 58 -63 103 -63 27 0 30 -3 30 -32 0 -18 -5 -62 -11
-98 -16 -97 -14 -255 5 -339 8 -40 13 -78 9 -84 -3 -6 -1 -7 5 -3 7 4 12 2 12
-3 0 -18 4 -24 38 -57 33 -32 34 -32 62 -16 16 9 26 20 24 24 -5 7 28 28 44
28 8 0 13 -24 27 -125 1 -5 7 -23 13 -38 7 -16 12 -33 12 -38 0 -5 12 -37 26
-72 14 -34 27 -66 28 -72 1 -5 9 -24 18 -40 9 -17 18 -39 20 -50 1 -11 5 -22
8 -25 9 -8 50 -81 50 -88 0 -4 -54 -6 -119 -5 -66 1 -132 -1 -148 -6 -15 -5
-48 -15 -73 -22 -56 -16 -87 -37 -150 -102 -44 -45 -51 -60 -68 -131 -16 -67
-19 -111 -17 -256 2 -96 5 -186 8 -200 16 -80 19 -96 20 -107 0 -7 3 -13 7
-13 3 0 6 -9 7 -21 7 -82 138 -354 225 -464 79 -99 92 -114 132 -153 71 -68
100 -94 128 -110 16 -9 28 -20 28 -24 0 -4 7 -8 15 -8 8 0 15 -4 15 -10 0 -5
7 -10 15 -10 8 0 15 -4 15 -8 0 -9 101 -59 108 -54 3 2 8 -1 11 -7 4 -6 19
-12 34 -13 15 -1 27 -6 27 -10 0 -4 14 -8 30 -8 17 0 30 -4 30 -8 0 -4 19 -9
42 -11 22 -1 48 -5 57 -9 18 -9 46 -7 110 7 46 9 80 -1 82 -26 2 -19 4 -23 33
-88 110 -239 186 -357 330 -510 67 -72 73 -85 56 -129 -6 -17 -6 -26 1 -26 6
0 8 -28 4 -77 -11 -133 -17 -459 -12 -597 2 -47 1 -50 -37 -71 -21 -12 -48
-35 -60 -51 -28 -39 -98 -106 -168 -161 -32 -25 -58 -50 -58 -54 0 -5 -3 -8
-7 -7 -11 3 -73 -35 -73 -44 0 -4 -6 -8 -14 -8 -7 0 -27 -13 -44 -29 -16 -16
-32 -28 -34 -25 -3 2 -28 -19 -56 -46 -29 -28 -52 -47 -52 -44 0 3 -15 -9 -33
-28 -19 -18 -78 -73 -132 -123 -140 -127 -263 -253 -277 -283 -9 -17 -33 -34
-73 -51 -33 -14 -61 -29 -63 -33 -2 -5 -11 -8 -19 -8 -19 0 -145 -68 -155 -84
-4 -6 -8 -7 -8 -3 0 7 -57 -21 -140 -71 -49 -29 -179 -102 -215 -120 -16 -9
-32 -18 -35 -21 -3 -4 -17 -12 -32 -18 -16 -7 -28 -17 -28 -23 0 -6 -4 -9 -9
-6 -12 8 -101 -43 -101 -57 0 -5 -3 -7 -6 -4 -7 7 -104 -41 -116 -58 -4 -5 -8
-7 -8 -3 0 3 -26 -9 -57 -28 -31 -19 -72 -40 -90 -46 -18 -7 -33 -16 -33 -20
0 -4 -9 -8 -20 -8 -11 0 -20 -5 -20 -10 0 -6 -3 -9 -7 -8 -7 2 -143 -64 -213
-102 -14 -8 -32 -15 -40 -16 -8 -2 -16 -8 -18 -13 -2 -6 -8 -11 -13 -11 -9 0
-169 -89 -179 -100 -3 -3 -17 -12 -31 -20 -70 -39 -189 -153 -189 -180 0 -6
-4 -10 -8 -10 -7 0 -55 -91 -58 -109 0 -3 -6 -19 -14 -36 -21 -51 -14 -255 10
-279 6 -6 10 -17 10 -26 0 -9 18 -53 40 -99 48 -99 50 -142 9 -172 -15 -10
-32 -19 -37 -19 -20 0 -88 -77 -118 -135 -39 -74 -86 -203 -78 -216 3 -5 1 -9
-4 -9 -5 0 -12 -19 -16 -42 -4 -23 -18 -87 -32 -143 -14 -55 -27 -107 -29
-115 -2 -8 -4 -16 -5 -17 -2 -2 -4 -7 -5 -13 -1 -5 -4 -12 -5 -15 -1 -3 -3 -8
-5 -12 -13 -49 -126 -273 -136 -273 -6 0 -8 -4 -5 -8 3 -5 -11 -34 -30 -66
-19 -32 -31 -62 -28 -68 4 -6 2 -8 -4 -4 -10 6 -25 -21 -19 -35 1 -4 -5 -15
-14 -25 -9 -11 -20 -29 -23 -41 -4 -13 -12 -23 -18 -23 -6 0 -8 -3 -5 -7 4 -3
0 -17 -8 -30 l-15 -23 4875 0 c4238 0 4875 2 4875 14 0 8 -5 18 -10 21 -6 4
-8 11 -5 16 4 5 1 9 -6 9 -7 0 -10 3 -7 6 4 3 -10 40 -29 82 -58 128 -69 153
-116 262 -47 111 -60 145 -56 145 2 0 -4 14 -13 30 -9 17 -22 46 -28 65 -7 19
-18 49 -25 65 -7 17 -34 82 -60 145 -26 63 -55 121 -63 127 -9 7 -12 13 -8 13
4 0 -11 34 -34 76 -60 110 -64 118 -71 124 -3 3 -20 31 -38 63 -34 60 -99 131
-189 207 l-52 45 16 59 c26 99 28 117 29 241 0 102 -4 130 -24 185 -13 36 -32
77 -42 91 -10 14 -16 29 -12 33 3 3 1 6 -5 6 -6 0 -14 9 -17 21 -19 59 -98
156 -165 202 -25 17 -48 35 -52 41 -4 6 -8 7 -8 3 0 -5 -17 5 -37 21 -42 33
-104 67 -115 64 -5 -1 -8 2 -8 7 0 5 -12 14 -27 20 -16 6 -43 20 -61 31 -73
44 -181 98 -186 92 -3 -3 -6 0 -6 7 0 7 -4 9 -10 6 -5 -3 -10 -1 -10 6 0 7 -3
9 -7 6 -3 -4 -15 0 -25 10 -10 9 -18 13 -18 10 0 -3 -46 14 -102 39 -141 62
-148 65 -423 194 -139 65 -173 79 -179 73 -3 -4 -6 -2 -6 4 0 11 -28 23 -63
27 -11 2 -22 8 -27 15 -4 7 -9 12 -11 10 -6 -4 -83 23 -94 32 -5 5 -17 9 -27
9 -10 0 -18 3 -18 8 0 4 -15 13 -32 20 -78 32 -154 67 -169 79 -9 7 -19 10
-22 6 -4 -3 -7 -1 -7 6 0 7 -4 9 -10 6 -5 -3 -10 -1 -10 4 0 6 -7 11 -15 11
-8 0 -15 5 -15 11 0 5 -4 8 -9 4 -5 -3 -12 -1 -16 5 -10 17 -75 40 -112 40
-19 0 -32 4 -28 9 3 5 1 12 -5 16 -6 4 -8 11 -5 16 4 5 2 9 -3 9 -4 0 -16 16
-25 35 -9 19 -22 35 -29 35 -6 0 -8 3 -5 6 10 11 -103 144 -206 243 -67 64
-228 181 -239 175 -5 -3 -8 0 -8 5 0 6 -7 11 -15 11 -8 0 -15 5 -15 11 0 5 -4
7 -10 4 -6 -3 -10 -1 -10 4 0 6 -7 11 -15 11 -8 0 -15 5 -15 11 0 6 -7 8 -16
5 -8 -3 -13 -2 -10 3 3 5 -22 28 -57 51 -34 24 -64 45 -66 46 -4 3 16 200 30
279 5 33 12 105 15 160 8 165 11 203 30 350 3 28 7 66 8 86 2 44 69 131 256
331 52 56 50 54 114 136 27 34 54 62 59 62 6 0 7 3 4 6 -6 6 18 47 48 81 31
37 35 43 30 43 -4 0 3 13 14 29 12 16 21 32 21 35 0 3 13 34 29 68 16 35 33
75 36 89 6 25 8 25 88 24 45 -1 87 2 92 5 6 4 30 10 53 14 24 4 60 15 80 25
21 10 39 19 42 18 5 0 77 36 125 64 17 10 39 22 50 27 12 6 27 17 34 26 7 9
17 16 22 16 8 0 36 20 64 48 8 6 17 12 20 12 4 0 16 11 27 25 11 14 24 23 29
19 5 -3 8 -2 7 3 -3 8 21 37 85 104 9 11 18 22 18 27 1 4 14 26 30 48 15 23
29 48 31 55 2 8 6 16 9 19 9 7 108 256 114 288 8 37 13 57 15 57 1 0 4 15 14
80 2 11 4 20 5 20 11 0 18 421 8 460 -3 11 -19 47 -36 79 -16 33 -27 64 -24
70 3 6 3 8 -2 4 -4 -4 -30 11 -56 35 -66 59 -77 67 -89 67 -5 0 -10 4 -10 10
0 5 -3 9 -7 8 -5 0 -26 7 -48 17 -49 22 -57 24 -118 26 -44 2 -48 4 -43 23 3
11 10 62 16 111 21 164 33 235 40 235 4 0 8 6 7 13 -1 40 4 67 13 62 6 -3 7 1
4 10 -4 8 0 22 7 31 7 8 14 29 16 47 2 17 8 34 14 38 6 3 10 9 10 13 -4 29 1
46 11 40 6 -4 8 -3 5 3 -9 14 12 85 23 78 6 -3 7 0 4 8 -3 8 -1 18 5 22 6 3
11 13 11 21 0 24 62 154 71 148 5 -3 6 2 3 10 -7 19 47 137 59 129 6 -3 7 -1
4 5 -10 15 3 43 16 35 6 -3 7 -1 3 6 -4 6 -2 19 5 27 7 9 14 23 15 31 1 8 11
21 21 30 10 8 13 12 6 9 -6 -4 5 25 25 63 20 38 39 68 43 66 3 -2 6 2 6 9 0
17 69 131 97 160 42 44 67 78 83 112 9 19 20 34 23 34 4 0 6 10 5 23 -1 12 -3
27 -4 34 -2 22 -44 36 -108 35 -57 0 -63 2 -63 19 0 11 24 46 53 77 85 92 161
183 201 242 21 30 43 58 49 62 7 4 9 8 5 8 -4 0 6 27 23 60 16 34 31 77 33 98
4 41 -12 113 -29 124 -5 4 -6 8 -1 8 5 0 1 9 -9 20 -10 11 -21 17 -26 14 -13
-7 -49 19 -49 36 0 9 43 36 110 69 61 30 110 58 110 62 0 5 5 9 11 9 6 0 17 7
26 15 8 8 19 12 25 9 6 -4 8 -2 4 4 -3 6 -2 13 4 17 6 3 19 23 29 43 16 32 17
43 7 82 -7 26 -22 62 -34 81 -12 20 -19 39 -15 42 3 4 -1 7 -10 7 -9 0 -17 4
-17 9 0 9 -85 96 -112 116 -8 6 -55 37 -106 70 -92 61 -107 79 -73 90 10 3 31
17 47 30 15 13 30 22 32 20 2 -2 30 21 61 52 31 31 59 56 64 55 4 -1 6 1 5 5
-4 11 42 83 52 83 7 0 19 28 24 55 1 6 7 9 14 8 6 -2 9 3 6 11 -3 7 1 20 9 27
7 8 14 17 15 22 9 40 15 56 23 52 4 -3 6 4 4 15 -2 12 2 23 10 26 7 3 11 12 8
20 -3 8 -1 14 5 14 5 0 7 11 4 25 -2 14 0 25 4 25 5 0 9 28 9 62 0 49 -4 66
-18 76 -9 7 -14 18 -11 24 7 12 -38 0 -46 -12 -6 -9 -52 -25 -62 -22 -5 1 -8
-3 -8 -9 0 -5 -4 -7 -10 -4 -5 3 -10 1 -10 -5 0 -7 -7 -9 -16 -6 -8 3 -13 2
-10 -2 3 -5 -13 -13 -34 -19 -29 -7 -38 -7 -33 1 4 6 -2 4 -13 -5 -32 -26 -48
-34 -39 -18 7 11 6 12 -7 2 -8 -7 -19 -9 -23 -5 -5 4 -5 1 0 -7 6 -11 3 -13
-13 -9 -14 4 -20 2 -15 -5 4 -6 0 -8 -10 -4 -9 3 -19 2 -22 -4 -4 -5 -10 -7
-15 -4 -5 3 -12 1 -15 -5 -4 -6 -15 -8 -26 -5 -10 4 -19 2 -19 -2 0 -15 -98
-31 -110 -19 -8 8 -11 7 -8 -3 3 -15 -13 -18 -104 -23 -21 -2 -38 -6 -38 -9 0
-4 -15 -6 -32 -5 -18 1 -39 -3 -47 -9 -12 -8 -13 -7 -6 5 7 12 6 13 -6 3 -16
-13 -246 -17 -254 -4 -2 5 -16 7 -30 6 -14 -2 -25 0 -25 5 0 4 -9 6 -20 3 -11
-3 -20 -1 -20 5 0 5 -8 9 -17 9 -35 0 -44 3 -38 13 3 6 -1 7 -9 4 -9 -3 -16
-1 -16 6 0 6 -4 8 -10 5 -5 -3 -10 -1 -10 4 0 6 -9 11 -20 11 -11 0 -20 4 -20
8 0 5 -6 9 -12 9 -17 1 -119 49 -114 54 3 2 -7 5 -21 6 -14 0 -29 7 -34 15 -5
7 -9 9 -9 5 0 -4 -10 -2 -22 5 -25 13 -30 15 -54 17 -8 0 -13 5 -10 10 4 5 -4
7 -16 3 -13 -3 -19 -1 -15 5 5 7 0 9 -13 6 -11 -3 -20 -1 -20 4 0 5 -10 9 -22
10 -11 1 -24 6 -27 10 -3 4 -13 9 -21 10 -8 1 -26 4 -40 8 -14 4 -35 8 -48 10
-13 2 -28 8 -35 13 -7 5 -20 8 -29 7 -11 -2 -18 3 -18 13 0 14 -2 14 -9 3 -6
-9 -15 -11 -27 -6 -11 5 -23 7 -28 6 -4 -1 -15 6 -23 16 -8 10 -12 12 -8 6 4
-8 0 -13 -9 -13 -9 0 -16 4 -16 9 0 5 -9 7 -20 4 -11 -3 -20 -1 -20 4 0 5 -13
8 -30 5 -16 -2 -30 0 -30 4 0 5 -23 10 -52 12 -29 1 -55 6 -58 10 -3 4 -23 7
-45 8 -22 0 -65 4 -95 8 -78 10 -180 12 -180 4 0 -5 -12 -8 -26 -8 -14 0 -23
3 -21 8 3 4 -36 5 -86 3 -51 -2 -107 -4 -124 -5 -18 0 -33 -4 -33 -8 0 -4 -16
-6 -36 -4 -19 1 -37 -1 -40 -5 -2 -4 -15 -6 -29 -4 -14 1 -28 -1 -30 -5 -3 -5
-16 -7 -30 -5 -14 1 -25 -2 -25 -8 0 -5 -11 -7 -25 -5 -14 3 -25 2 -25 -2 0
-4 -10 -7 -22 -6 -13 1 -25 -2 -28 -6 -3 -4 -23 -10 -45 -13 -63 -9 -70 -11
-80 -17 -6 -3 -18 -4 -28 -3 -9 2 -15 -1 -11 -6 3 -5 -3 -9 -13 -10 -33 -1
-66 -9 -78 -19 -7 -5 -15 -7 -19 -3 -4 4 -10 2 -14 -5 -5 -6 -17 -13 -28 -15
-12 -1 -34 -11 -50 -22 -16 -10 -37 -18 -46 -18 -10 1 -18 -3 -18 -8 0 -6 -4
-7 -10 -4 -5 3 -10 2 -10 -4 0 -11 -79 -36 -87 -27 -11 10 7 57 19 50 7 -5 9
-2 5 9 -4 10 8 30 36 58 23 24 35 39 27 34 -13 -8 -13 -6 -1 8 7 9 16 15 20
12 4 -2 15 7 25 20 10 14 22 22 27 19 5 -3 9 2 9 11 0 9 5 13 10 10 6 -3 10 1
10 10 0 11 5 15 16 11 8 -3 12 -2 9 4 -3 6 -1 10 4 10 6 0 22 9 35 21 13 12
27 20 31 19 4 -1 13 7 22 17 9 11 12 12 8 3 -4 -10 -2 -9 8 3 8 9 20 17 26 17
7 0 9 5 6 10 -3 6 1 10 9 10 9 0 16 5 16 10 0 6 5 10 10 10 6 0 19 9 30 20 11
11 17 20 14 20 -4 0 -2 6 3 13 13 17 10 42 -4 43 -7 1 -20 2 -29 3 -8 0 -12 6
-8 12 4 8 1 8 -13 1 -25 -14 -86 -12 -95 2 -5 7 -8 7 -8 -3z"/>
</g>
</svg>
