<?xml version="1.0" standalone="no"?>
<!DOCTYPE svg PUBLIC "-//W3C//DTD SVG 20010904//EN"
 "http://www.w3.org/TR/2001/REC-SVG-20010904/DTD/svg10.dtd">
<svg version="1.0" xmlns="http://www.w3.org/2000/svg"
 width="512.000000pt" height="512.000000pt" viewBox="0 0 512.000000 512.000000"
 preserveAspectRatio="xMidYMid meet">
<metadata>
Created by potrace 1.14, written by Peter Selinger 2001-2017
</metadata>
<g transform="translate(0.000000,512.000000) scale(0.100000,-0.100000)"
fill="#000000" stroke="none">
<path d="M0 2560 l0 -2560 2560 0 2560 0 0 2560 0 2560 -2560 0 -2560 0 0
-2560z m1838 793 c-3 -55 -4 -57 -35 -64 -85 -17 -186 -98 -230 -184 -34 -66
-42 -159 -19 -220 23 -58 89 -116 170 -148 35 -14 137 -42 228 -61 228 -49
293 -74 369 -143 83 -75 115 -170 107 -314 -5 -74 -11 -100 -40 -161 -77 -161
-224 -270 -395 -293 l-53 -7 0 59 0 59 59 12 c44 9 78 26 132 65 191 138 234
363 93 487 -61 53 -132 79 -332 120 -269 57 -379 116 -439 238 -26 53 -28 66
-28 177 0 109 2 125 27 178 60 128 236 253 361 256 28 1 28 1 25 -56z m280 16
c79 -39 166 -124 210 -207 43 -81 42 -96 -9 -111 -23 -7 -47 -15 -54 -17 -8
-3 -24 18 -42 58 -16 35 -42 78 -57 96 -28 33 -151 98 -196 104 -23 3 -25 8
-28 62 l-3 59 57 -6 c34 -4 84 -19 122 -38z m1197 -691 l460 -733 3 -88 3 -88
-32 3 c-32 3 -47 25 -521 781 -428 684 -488 783 -488 818 l0 39 58 0 57 0 460
-732z m465 92 c0 -352 -4 -640 -8 -640 -4 0 -31 40 -60 88 l-52 88 0 552 0
552 60 0 60 0 0 -640z m-968 279 l47 -74 0 -602 1 -603 -60 0 -60 0 0 681 c0
540 3 680 13 677 6 -3 33 -38 59 -79z m-1283 -927 c48 -134 131 -202 284 -236
27 -6 28 -8 25 -64 l-3 -57 -45 3 c-151 9 -326 146 -376 294 -22 66 -17 79 41
99 28 10 51 18 51 18 1 1 11 -25 23 -57z"/>
</g>
</svg>
